<?xml version="1.0" encoding="utf-8"?>
<svg version="1.1" xmlns:xlink="http://www.w3.org/1999/xlink" width="500px" height="310px" xmlns="http://www.w3.org/2000/svg">
  <g transform="matrix(1 0 0 1 -1788 -611 )">
    <path d="M 1788 611  L 2288 611  L 2288 921  L 1788 921  L 1788 611  " fill-rule="nonzero" fill="#cccccc" stroke="none" />
    <path d="M 1810 633  L 2266 633  L 2266 899  L 1810 899  L 1810 633  " fill-rule="nonzero" fill="#ffffff" stroke="none" />
    <path d="M 2071.25 704  C 2058.23 704  2048 693.77  2048 680.75  C 2048 667.73  2058.23 657.5  2071.25 657.5  C 2084.27 657.5  2094.5 667.73  2094.5 680.75  C 2094.5 693.77  2084.27 704  2071.25 704  " fill-rule="nonzero" fill="#cccccc" stroke="none" />
    <path d="M 1818 891  L 1818 753.5  L 1928 691  L 2082 798  L 2170 728.5  L 2258 798  L 2258 891  L 1818 891  " fill-rule="nonzero" fill="#169bd5" stroke="none" />
  </g>
</svg>